<svg xmlns="http://www.w3.org/2000/svg" viewBox="0 0 900 720" role="img" aria-labelledby="title desc"><title id="title">Der Verdauungsweg</title><desc id="desc">Simplified frontal digestive anatomy with mouth, oesophagus, stomach, liver, gallbladder, pancreas, small intestine, large intestine and rectum. Patient right appears on the left of the image.</desc><defs><marker id="arrow" markerWidth="8" markerHeight="8" refX="7" refY="4" orient="auto"><path d="M0 0L8 4L0 8" fill="#127c80"/></marker></defs><style>text{font-family:Arial,sans-serif;fill:#17334b}.title{font-size:30px;font-weight:700}.label{font-size:23px;font-weight:600}.small{font-size:19px}.line{fill:none;stroke:#517181;stroke-width:2}.organ{fill:#b6e0d8;stroke:#127c80;stroke-width:4}.flow{fill:none;stroke:#127c80;stroke-width:4;marker-end:url(#arrow)}</style><rect width="900" height="720" rx="24" fill="#faf8f1"/><text x="42" y="53" class="title">Der Verdauungsweg</text><text x="42" y="84" class="small">Vom Mund bis zum Enddarm: die Stationen benennen.</text>
<path d="M390 142Q450 114 510 142L495 178H405Z" fill="#f1d9bc" stroke="#a66c36" stroke-width="3"/>
<path d="M450 177V276" fill="none" stroke="#127c80" stroke-width="20"/>
<path d="M452 268C477 292 505 239 545 272C605 319 559 371 504 359C463 350 453 325 452 268Z" class="organ"/>
<path d="M438 273C373 252 295 258 286 302C304 343 385 335 438 306Z" fill="#d9b697" stroke="#956641" stroke-width="3"/>
<ellipse cx="369" cy="331" rx="15" ry="22" fill="#85b19b" stroke="#127c80" stroke-width="3"/>
<path d="M404 372Q469 341 535 374Q488 396 416 390Z" fill="#ecd790" stroke="#9e822d" stroke-width="3"/>
<path d="M335 544V437Q335 411 365 411H550Q574 411 574 437V544Q574 568 548 568H481V609" fill="none" stroke="#aacfc9" stroke-width="28" stroke-linecap="round"/>
<path d="M528 404C408 414 390 434 494 447S534 479 425 475S398 509 505 515S503 552 416 541" fill="none" stroke="#127c80" stroke-width="12" stroke-linecap="round"/>
<path d="M510 148H645M460 218H645M558 307H645M535 374H645M574 462H645M485 604H645M291 293H238M355 341H238M414 486H238" class="line"/>
<text x="660" y="155" class="label">Mund</text><text x="660" y="225" class="label">Speiseröhre</text><text x="660" y="314" class="label">Magen</text><text x="650" y="366" class="small">Bauchspeichel-</text><text x="650" y="389" class="small">drüse</text><text x="660" y="469" class="label">Dickdarm</text><text x="660" y="611" class="label">Enddarm</text>
<text x="77" y="300" class="label">Leber</text><text x="77" y="348" class="label">Gallenblase</text><text x="77" y="493" class="label">Dünndarm</text>
<text x="42" y="632" class="small">Ansicht von vorn: Die rechte Körperseite liegt links im Bild.</text><path d="M42 659H858" stroke="#cedbd8"/><text x="42" y="690" class="small">Lernschema · nicht maßstabsgetreu · keine Diagnosedarstellung</text></svg>